HIERARCHY
ROOT RootJoint
{
    OFFSET   0.000000   0.000000   0.000000
    CHANNELS 6 Xposition Yposition Zposition Xrotation Yrotation Zrotation
    JOINT pelvis_lowerback
    {
        OFFSET   0.000000   0.093605   0.000000
        CHANNELS 3 Xrotation Yrotation Zrotation
        JOINT lowerback_torso
        {
            OFFSET   0.000000   0.100000   0.000000
            CHANNELS 3 Xrotation Yrotation Zrotation
            JOINT torso_head
            {
                OFFSET   0.000000   0.282350   0.000000
                CHANNELS 3 Xrotation Yrotation Zrotation
                End Site
                {
                    OFFSET   0.000000   0.192650   0.000000
                }
            }
            JOINT rTorso_Clavicle
            {
                OFFSET  -0.001000   0.157500   0.000000
                CHANNELS 3 Xrotation Yrotation Zrotation
                JOINT rShoulder
                {
                    OFFSET  -0.117647   0.000000   0.000000
                    CHANNELS 3 Xrotation Yrotation Zrotation
                    JOINT rElbow
                    {
                        OFFSET  -0.245000   0.000000   0.000000
                        CHANNELS 3 Xrotation Yrotation Zrotation
                        JOINT rWrist
                        {
                            OFFSET  -0.240000   0.000000   0.000000
                            CHANNELS 3 Xrotation Yrotation Zrotation
                            End Site
                            {
                                OFFSET  -0.116353  -0.002500   0.000000
                            }
                        }
                    }
                }
            }
            JOINT lTorso_Clavicle
            {
                OFFSET   0.001000   0.157500   0.000000
                CHANNELS 3 Xrotation Yrotation Zrotation
                JOINT lShoulder
                {
                    OFFSET   0.117647   0.000000   0.000000
                    CHANNELS 3 Xrotation Yrotation Zrotation
                    JOINT lElbow
                    {
                        OFFSET   0.245000   0.000000   0.000000
                        CHANNELS 3 Xrotation Yrotation Zrotation
                        JOINT lWrist
                        {
                            OFFSET   0.240000   0.000000   0.000000
                            CHANNELS 3 Xrotation Yrotation Zrotation
                            End Site
                            {
                                OFFSET   0.116353  -0.002500   0.000000
                            }
                        }
                    }
                }
            }
        }
    }
    JOINT rHip
    {
        OFFSET  -0.100000  -0.051395   0.000000
        CHANNELS 3 Xrotation Yrotation Zrotation
        JOINT rKnee
        {
            OFFSET   0.000000  -0.410000   0.000000
            CHANNELS 3 Xrotation Yrotation Zrotation
            JOINT rAnkle
            {
                OFFSET   0.000000  -0.390000   0.000000
                CHANNELS 3 Xrotation Yrotation Zrotation
                JOINT rToeJoint
                {
                    OFFSET   0.000000  -0.050000   0.130000
                    CHANNELS 3 Xrotation Yrotation Zrotation
                    End Site
                    {
                        OFFSET  -0.010000   0.002000   0.060000
                    }
                }
            }
        }
    }
    JOINT lHip
    {
        OFFSET   0.100000  -0.051395   0.000000
        CHANNELS 3 Xrotation Yrotation Zrotation
        JOINT lKnee
        {
            OFFSET   0.000000  -0.410000   0.000000
            CHANNELS 3 Xrotation Yrotation Zrotation
            JOINT lAnkle
            {
                OFFSET   0.000000  -0.390000   0.000000
                CHANNELS 3 Xrotation Yrotation Zrotation
                JOINT lToeJoint
                {
                    OFFSET   0.000000  -0.050000   0.130000
                    CHANNELS 3 Xrotation Yrotation Zrotation
                    End Site
                    {
                        OFFSET   0.010000   0.002000   0.060000
                    }
                }
            }
        }
    }
}
MOTION
Frames: 5
Frame Time:   0.008333
 -2.347671   0.918171   3.924562  11.692229  -2.278319   0.684196  28.169148   3.486061   3.996046   9.400065   2.915863   3.350014   6.844668  -7.747659   3.411577  -2.908179  23.028275  -2.539944 -27.468479  14.280131  47.894829   0.015217  46.309495  -0.005456  -8.735315   0.897439  -7.566120  -1.895607  -5.986722   5.309625  -8.344864 -10.266803 -41.708639 -179.798047 -88.819835 -179.784966  -3.545767  -4.013240   4.876523 -19.737165  -8.884145  -8.266663   5.227556   0.000060  -0.000023   5.987901  -4.873352   1.488148  -4.556770   0.000321  -0.000027 -14.836795   0.753510   4.462672   3.983401  -0.000077   0.000102  -0.687941   5.758098   0.070986   0.287019  -0.000019   0.000001
 -2.347243   0.918133   3.925473  11.671266  -2.214593   0.744388  27.971150   3.468981   4.100186   9.539777   2.999445   3.470305   6.908226  -7.784557   3.491015  -2.788468  22.681767  -2.451918 -26.991789  14.402860  47.864000   0.015039  47.084331  -0.005674  -8.659792   0.877281  -7.321037  -1.739237  -5.430626   5.378425  -7.826158  -9.953907 -41.506167 -179.888843 -88.109005 -179.875518  -3.465034  -4.095550   4.554402 -19.660516  -8.924678  -8.373438   5.246732   0.000055  -0.000017   5.771570  -4.904684   1.430139  -4.317850   0.000438  -0.000064 -14.719678   0.688256   4.342577   3.913507  -0.000087   0.000099  -0.729626   5.787434   0.181775   0.297414  -0.000021   0.000001
 -2.346811   0.918087   3.926389  11.649821  -2.152999   0.808135  27.779622   3.458565   4.210272   9.678303   3.084506   3.586981   6.973453  -7.819750   3.567111  -2.674079  22.326269  -2.381223 -26.539034  14.507576  47.818509   0.014426  47.815735  -0.005578  -8.575889   0.929253  -7.079401  -1.569730  -4.868070   5.442068  -7.314883  -9.638631 -41.317257 -179.927574 -87.443149 -179.914325  -3.385332  -4.194893   4.195351 -19.582503  -8.963449  -8.483192   5.263246   0.000049  -0.000013   5.553422  -4.936478   1.375017  -4.080798   0.000525  -0.000098 -14.603280   0.628121   4.220086   3.846646  -0.000094   0.000095  -0.772043   5.813967   0.285159   0.307204  -0.000022   0.000001
 -2.346394   0.918040   3.927286  11.629920  -2.096454   0.870988  27.596946   3.456549   4.323441   9.809127   3.172151   3.699722   7.036266  -7.852295   3.639960  -2.566725  21.979076  -2.322014 -26.112276  14.597512  47.764465   0.013591  48.496611  -0.005313  -8.494410   0.986230  -6.866902  -1.401498  -4.319935   5.498891  -6.825884  -9.329548 -41.142102 -179.947917 -86.825255 -179.935011  -3.310527  -4.271313   3.840878 -19.507450  -8.999170  -8.589672   5.278150   0.000044  -0.000010   5.343719  -4.965519   1.323396  -3.857477   0.000575  -0.000121 -14.491613   0.573146   4.101713   3.783952  -0.000097   0.000089  -0.814436   5.839167   0.381561   0.316616  -0.000022   0.000001
 -2.346002   0.917991   3.928154  11.611993  -2.044434   0.931810  27.423413   3.460669   4.437181   9.930699   3.260474   3.808585   7.095809  -7.882316   3.709212  -2.466787  21.647562  -2.270381 -25.712073  14.677142  47.707231   0.012666  49.130471  -0.004966  -8.416855   1.036072  -6.678495  -1.240148  -3.795371   5.550109  -6.364197  -9.032037 -40.980203 -179.960118 -86.250966 -179.947741  -3.240272  -4.326605   3.501650 -19.436213  -9.032294  -8.691265   5.291655   0.000040  -0.000008   5.143725  -4.992112   1.275377  -3.648168   0.000597  -0.000135 -14.385626   0.522577   3.989051   3.724953  -0.000097   0.000084  -0.856004   5.862998   0.471705   0.325794  -0.000022   0.000001
